<svg xmlns="http://www.w3.org/2000/svg" width="1920" height="1080" viewBox="0 0 1920 1080"><rect x="0" y="0" width="1920" height="1080" fill="#101A30"/><rect x="0" y="760" width="1920" height="320" fill="#2F5D8A" fill-opacity="0.06"/><rect x="0" y="820" width="1920" height="260" fill="#2F5D8A" fill-opacity="0.10"/><rect x="0" y="880" width="1920" height="200" fill="#2F5D8A" fill-opacity="0.14"/><line x1="1300" y1="0" x2="1100" y2="1080" stroke="#2F5D8A" stroke-opacity="0.08" stroke-width="2"/><line x1="1396" y1="0" x2="1196" y2="1080" stroke="#2F5D8A" stroke-opacity="0.08" stroke-width="2"/><line x1="1492" y1="0" x2="1292" y2="1080" stroke="#2F5D8A" stroke-opacity="0.08" stroke-width="2"/><line x1="1588" y1="0" x2="1388" y2="1080" stroke="#2F5D8A" stroke-opacity="0.08" stroke-width="2"/><line x1="1684" y1="0" x2="1484" y2="1080" stroke="#2F5D8A" stroke-opacity="0.08" stroke-width="2"/><line x1="1780" y1="0" x2="1580" y2="1080" stroke="#2F5D8A" stroke-opacity="0.08" stroke-width="2"/><line x1="1876" y1="0" x2="1676" y2="1080" stroke="#2F5D8A" stroke-opacity="0.08" stroke-width="2"/><text x="120" y="176" font-family="Liberation Sans, Arial, sans-serif" font-size="26" font-weight="700" font-style="normal" fill="#6E9CC4" text-anchor="start" letter-spacing="4">BUILDER-LED GROWTH — PARTE 5</text><line x1="120" y1="204" x2="470" y2="204" stroke="#2F5D8A" stroke-width="3"/><text x="120" y="312" font-family="Liberation Sans, Arial, sans-serif" font-size="82" font-weight="700" font-style="normal" fill="#FFFFFF" text-anchor="start">O poço de onde</text><text x="120" y="404" font-family="Liberation Sans, Arial, sans-serif" font-size="82" font-weight="700" font-style="normal" fill="#FFFFFF" text-anchor="start">todos bebem</text><text x="120" y="468" font-family="Liberation Sans, Arial, sans-serif" font-size="32" font-weight="400" font-style="normal" fill="#AEB6C2" text-anchor="start">Pilar 3 — comunidade e sinal de validação</text><rect x="120" y="560" width="400" height="92" rx="12" fill="#6E9CC4" fill-opacity="0.14"/><rect x="120" y="560" width="400" height="92" rx="12" fill="none" stroke="#6E9CC4" stroke-width="1.5"/><text x="320.0" y="616" font-family="Liberation Sans, Arial, sans-serif" font-size="17" font-weight="700" font-style="normal" fill="#FFFFFF" text-anchor="middle" letter-spacing="1">PRODUZ A MATÉRIA-PRIMA</text><rect x="546" y="560" width="400" height="92" rx="12" fill="#6E9CC4" fill-opacity="0.14"/><rect x="546" y="560" width="400" height="92" rx="12" fill="none" stroke="#6E9CC4" stroke-width="1.5"/><text x="746.0" y="616" font-family="Liberation Sans, Arial, sans-serif" font-size="17" font-weight="700" font-style="normal" fill="#FFFFFF" text-anchor="middle" letter-spacing="1">É COMPARTILHADO</text><rect x="972" y="560" width="400" height="92" rx="12" fill="#B8792E" fill-opacity="0.14"/><rect x="972" y="560" width="400" height="92" rx="12" fill="none" stroke="#B8792E" stroke-width="2"/><text x="1172.0" y="616" font-family="Liberation Sans, Arial, sans-serif" font-size="17" font-weight="700" font-style="normal" fill="#FFFFFF" text-anchor="middle" letter-spacing="1">É ESGOTÁVEL</text><rect x="1398" y="560" width="400" height="92" rx="12" fill="#6E9CC4" fill-opacity="0.14"/><rect x="1398" y="560" width="400" height="92" rx="12" fill="none" stroke="#6E9CC4" stroke-width="1.5"/><text x="1598.0" y="616" font-family="Liberation Sans, Arial, sans-serif" font-size="17" font-weight="700" font-style="normal" fill="#FFFFFF" text-anchor="middle" letter-spacing="1">SOZINHO NÃO SUSTENTA</text><rect x="120" y="696" width="1680" height="88" rx="12" fill="#B8792E" fill-opacity="0.16"/><rect x="120" y="696" width="1680" height="88" rx="12" fill="none" stroke="#B8792E" stroke-width="2"/><text x="152" y="752" font-family="Liberation Sans, Arial, sans-serif" font-size="27" font-weight="400" font-style="normal" fill="#FFFFFF" text-anchor="start">Comunidade não é um pilar. É o lençol freático — e ele é compartilhado com o vizinho.</text><line x1="120" y1="990" x2="1800" y2="990" stroke="#2F5D8A" stroke-width="1.5"/><text x="120" y="1032" font-family="Liberation Sans, Arial, sans-serif" font-size="21" font-weight="400" font-style="normal" fill="#AEB6C2" text-anchor="start">Matheus Ramos · com a série verificada da Stack Overflow, ArchWiki, MDN e as normas ISO 9001, 30401 e 19770-2</text></svg>